<svg width="64" height="64" viewBox="0 0 64 64" fill="none" xmlns="http://www.w3.org/2000/svg">
<path d="M1.00018 52.4926C1.00018 53.8676 2.08707 55.0006 3.41905 55.0006H59.916C61.248 55.0006 62.3349 53.8786 62.3349 52.4926V22.5953H1.00018V52.4926Z" fill="#7DD3FC"/>
<path d="M59.916 9H3.41905C2.08707 9 1.00018 10.122 1.00018 11.5079V19.3068H62.3349V11.5079C62.3349 10.133 61.248 9 59.916 9ZM6.5625 16.1278C5.51824 16.1278 4.67643 15.2589 4.67643 14.1809C4.67643 13.1029 5.51824 12.2339 6.5625 12.2339C7.60677 12.2339 8.44858 13.1029 8.44858 14.1809C8.44858 15.2589 7.60677 16.1278 6.5625 16.1278ZM14.1175 16.1278C13.0732 16.1278 12.2314 15.2589 12.2314 14.1809C12.2314 13.1029 13.0732 12.2339 14.1175 12.2339C15.1617 12.2339 16.0035 13.1029 16.0035 14.1809C16.0035 15.2589 15.1617 16.1278 14.1175 16.1278ZM21.6724 16.1278C20.6281 16.1278 19.7863 15.2589 19.7863 14.1809C19.7863 13.1029 20.6281 12.2339 21.6724 12.2339C22.7167 12.2339 23.5585 13.1029 23.5585 14.1809C23.5585 15.2589 22.7167 16.1278 21.6724 16.1278Z" fill="#3B82F6"/>
<path d="M44.5181 46.0603H17.5032C16.7613 46.0603 16.1623 46.6786 16.1623 47.4445C16.1623 48.2105 16.7613 48.8287 17.5032 48.8287H44.5181C45.2601 48.8287 45.859 48.2105 45.859 47.4445C45.859 46.6786 45.2601 46.0603 44.5181 46.0603Z" fill="#3B82F6"/>
<path d="M6.32005 27.9609C5.79263 28.4961 5.79263 29.3727 6.32005 29.9172L13.1676 36.9858L6.32005 44.0544C5.79263 44.5896 5.79263 45.4663 6.32005 46.0107C6.5793 46.2784 6.92793 46.4168 7.26763 46.4168C7.60733 46.4168 7.95596 46.2784 8.21521 46.0107L16.0104 37.964C16.2607 37.7056 16.4037 37.3549 16.4037 36.9858C16.4037 36.6167 16.2607 36.266 16.0104 36.0076L8.21521 27.9609C7.69672 27.4164 6.84748 27.4256 6.32005 27.9609Z" fill="#3B82F6"/>
</svg>
