<svg width="21" height="21" viewBox="0 0 21 21" fill="none" xmlns="http://www.w3.org/2000/svg">
<g clip-path="url(#clip0_1291_6157)">
<path d="M19.363 4.43555H2.4352C2.04707 4.43555 1.73242 4.75019 1.73242 5.13832V16.8182C1.73242 17.2063 2.04707 17.521 2.4352 17.521H19.363C19.7511 17.521 20.0658 17.2063 20.0658 16.8182V5.13832C20.0658 4.75019 19.7511 4.43555 19.363 4.43555Z" fill="#F9A8D4"/>
<path d="M5.02832 1.9375V6.08924" stroke="#DB2777" stroke-width="3" stroke-miterlimit="10" stroke-linecap="round"/>
<path d="M16.7695 1.9375V6.08924" stroke="#DB2777" stroke-width="3" stroke-miterlimit="10" stroke-linecap="round"/>
<path d="M7.96189 9.90816C8.41331 9.90816 8.77925 9.54221 8.77925 9.0908C8.77925 8.63938 8.41331 8.27344 7.96189 8.27344C7.51048 8.27344 7.14453 8.63938 7.14453 9.0908C7.14453 9.54221 7.51048 9.90816 7.96189 9.90816Z" fill="#FDF2F8"/>
<path d="M10.8994 9.90816C11.3508 9.90816 11.7168 9.54221 11.7168 9.0908C11.7168 8.63938 11.3508 8.27344 10.8994 8.27344C10.448 8.27344 10.082 8.63938 10.082 9.0908C10.082 9.54221 10.448 9.90816 10.8994 9.90816Z" fill="#FDF2F8"/>
<path d="M13.8359 9.90816C14.2873 9.90816 14.6533 9.54221 14.6533 9.0908C14.6533 8.63938 14.2873 8.27344 13.8359 8.27344C13.3845 8.27344 13.0186 8.63938 13.0186 9.0908C13.0186 9.54221 13.3845 9.90816 13.8359 9.90816Z" fill="#FDF2F8"/>
<path d="M16.7695 9.90816C17.2209 9.90816 17.5869 9.54221 17.5869 9.0908C17.5869 8.63938 17.2209 8.27344 16.7695 8.27344C16.3181 8.27344 15.9521 8.63938 15.9521 9.0908C15.9521 9.54221 16.3181 9.90816 16.7695 9.90816Z" fill="#FDF2F8"/>
<path d="M5.0283 12.6132C5.47971 12.6132 5.84566 12.2473 5.84566 11.7959C5.84566 11.3445 5.47971 10.9785 5.0283 10.9785C4.57688 10.9785 4.21094 11.3445 4.21094 11.7959C4.21094 12.2473 4.57688 12.6132 5.0283 12.6132Z" fill="#FDF2F8"/>
<path d="M7.96189 12.6132C8.41331 12.6132 8.77925 12.2473 8.77925 11.7959C8.77925 11.3445 8.41331 10.9785 7.96189 10.9785C7.51048 10.9785 7.14453 11.3445 7.14453 11.7959C7.14453 12.2473 7.51048 12.6132 7.96189 12.6132Z" fill="#FDF2F8"/>
<path d="M10.8984 12.6132C11.3498 12.6132 11.7158 12.2473 11.7158 11.7959C11.7158 11.3445 11.3498 10.9785 10.8984 10.9785C10.447 10.9785 10.0811 11.3445 10.0811 11.7959C10.0811 12.2473 10.447 12.6132 10.8984 12.6132Z" fill="#FDF2F8"/>
<path d="M13.8359 12.6132C14.2873 12.6132 14.6533 12.2473 14.6533 11.7959C14.6533 11.3445 14.2873 10.9785 13.8359 10.9785C13.3845 10.9785 13.0186 11.3445 13.0186 11.7959C13.0186 12.2473 13.3845 12.6132 13.8359 12.6132Z" fill="#FDF2F8"/>
<path d="M16.7695 12.6132C17.2209 12.6132 17.5869 12.2473 17.5869 11.7959C17.5869 11.3445 17.2209 10.9785 16.7695 10.9785C16.3181 10.9785 15.9521 11.3445 15.9521 11.7959C15.9521 12.2473 16.3181 12.6132 16.7695 12.6132Z" fill="#FDF2F8"/>
<path d="M5.0283 15.3164C5.47971 15.3164 5.84566 14.9504 5.84566 14.499C5.84566 14.0476 5.47971 13.6816 5.0283 13.6816C4.57688 13.6816 4.21094 14.0476 4.21094 14.499C4.21094 14.9504 4.57688 15.3164 5.0283 15.3164Z" fill="#FDF2F8"/>
<path d="M7.96189 15.3164C8.41331 15.3164 8.77925 14.9504 8.77925 14.499C8.77925 14.0476 8.41331 13.6816 7.96189 13.6816C7.51048 13.6816 7.14453 14.0476 7.14453 14.499C7.14453 14.9504 7.51048 15.3164 7.96189 15.3164Z" fill="#FDF2F8"/>
<path d="M10.8984 15.3164C11.3498 15.3164 11.7158 14.9504 11.7158 14.499C11.7158 14.0476 11.3498 13.6816 10.8984 13.6816C10.447 13.6816 10.0811 14.0476 10.0811 14.499C10.0811 14.9504 10.447 15.3164 10.8984 15.3164Z" fill="#FDF2F8"/>
</g>
<defs>
<clipPath id="clip0_1291_6157">
<rect width="20" height="20" fill="white" transform="translate(0.899414 0.271484)"/>
</clipPath>
</defs>
</svg>
