<svg width="32" height="33" viewBox="0 0 32 33" fill="none" xmlns="http://www.w3.org/2000/svg">
<path d="M16.0002 8.1543C11.8811 8.1543 8.54004 11.486 8.54004 15.5933C8.54004 21.086 11.3218 21.2275 12.4793 24.9592H19.5164C20.6738 21.2324 23.4556 21.0909 23.4556 15.5933C23.4556 11.486 20.1145 8.1543 16.0002 8.1543Z" fill="#6DCEFF"/>
<path d="M12.9314 28.0091H19.0688C19.1417 27.3359 19.3363 26.3164 19.3363 26.3164H12.625C12.625 26.3164 12.8536 27.3359 12.9314 28.0091Z" fill="#4169E1"/>
<path d="M16 6.02271C15.5963 6.02271 15.2705 5.69588 15.2705 5.291V1.00319C15.2705 0.598314 15.5963 0.271484 16 0.271484C16.4036 0.271484 16.7295 0.598314 16.7295 1.00319V5.291C16.7295 5.69588 16.4036 6.02271 16 6.02271Z" fill="#93C5FD"/>
<path d="M4.98968 19.2525H0.729485C0.325837 19.2525 0 18.9256 0 18.5208C0 18.1159 0.325837 17.7891 0.729485 17.7891H4.98968C5.39332 17.7891 5.71916 18.1159 5.71916 18.5208C5.71916 18.9256 5.39332 19.2525 4.98968 19.2525Z" fill="#2563EB"/>
<path d="M31.2709 19.2525H27.0107C26.6071 19.2525 26.2812 18.9256 26.2812 18.5208C26.2812 18.1159 26.6071 17.7891 27.0107 17.7891H31.2709C31.6746 17.7891 32.0004 18.1159 32.0004 18.5208C32.0004 18.9256 31.6746 19.2525 31.2709 19.2525Z" fill="#2563EB"/>
<path d="M7.11988 9.59843C6.99344 9.59843 6.86213 9.56428 6.74541 9.49599L3.19525 7.34965C2.84996 7.13989 2.73811 6.69111 2.94723 6.34477C3.15635 5.99843 3.60376 5.88623 3.94905 6.09599L7.49921 8.24233C7.8445 8.45209 7.95636 8.90087 7.74724 9.24721C7.61107 9.47648 7.36791 9.60331 7.11988 9.60331V9.59843Z" fill="#4169E1"/>
<path d="M24.8802 9.59745C24.6322 9.59745 24.3939 9.47062 24.2529 9.24135C24.0438 8.89501 24.1556 8.44623 24.5009 8.23647L28.0511 6.09013C28.3964 5.88037 28.8438 5.99257 29.0529 6.33891C29.262 6.68525 29.1502 7.13403 28.8049 7.34379L25.2547 9.49013C25.138 9.5633 25.0067 9.59257 24.8802 9.59257V9.59745Z" fill="#4169E1"/>
<path d="M12.8975 29.4121C12.8975 31.6755 14.2786 32.2706 15.9856 32.2706C17.6926 32.2706 19.0689 31.6755 19.0689 29.4121H12.8975Z" fill="#4169E1"/>
</svg>
