<svg width="64" height="64" viewBox="0 0 64 64" fill="none" xmlns="http://www.w3.org/2000/svg">
<path d="M32.0006 15.7656C23.7623 15.7656 17.0802 22.429 17.0802 30.6437C17.0802 41.6291 22.6437 41.912 24.9586 49.3754H39.0328C41.3477 41.9217 46.9113 41.6388 46.9113 30.6437C46.9113 22.429 40.2292 15.7656 32.0006 15.7656Z" fill="#7DD3FC"/>
<path d="M25.8633 55.4733H38.1381C38.284 54.1269 38.673 52.0879 38.673 52.0879H25.2505C25.2505 52.0879 25.7077 54.1269 25.8633 55.4733Z" fill="#4169E1"/>
<path d="M32.0004 11.5024C31.1931 11.5024 30.5414 10.8488 30.5414 10.039V1.46342C30.5414 0.653659 31.1931 0 32.0004 0C32.8077 0 33.4594 0.653659 33.4594 1.46342V10.039C33.4594 10.8488 32.8077 11.5024 32.0004 11.5024Z" fill="#4169E1"/>
<path d="M9.97993 37.9608H1.45955C0.652253 37.9608 0.000579834 37.3071 0.000579834 36.4974C0.000579834 35.6876 0.652253 35.0339 1.45955 35.0339H9.97993C10.7872 35.0339 11.4389 35.6876 11.4389 36.4974C11.4389 37.3071 10.7872 37.9608 9.97993 37.9608Z" fill="#4169E1"/>
<path d="M62.5416 37.9607H54.0212C53.2139 37.9607 52.5622 37.307 52.5622 36.4973C52.5622 35.6875 53.2139 35.0339 54.0212 35.0339H62.5416C63.3489 35.0339 64.0005 35.6875 64.0005 36.4973C64.0005 37.307 63.3489 37.9607 62.5416 37.9607Z" fill="#4169E1"/>
<path d="M14.2399 18.6536C13.9871 18.6536 13.7244 18.5853 13.491 18.4487L6.39069 14.156C5.70011 13.7365 5.4764 12.8389 5.89464 12.1463C6.31288 11.4536 7.20771 11.2292 7.89829 11.6487L14.9986 15.9414C15.6892 16.3609 15.9129 17.2585 15.4947 17.9511C15.2223 18.4097 14.736 18.6633 14.2399 18.6633V18.6536Z" fill="#4169E1"/>
<path d="M49.761 18.6536C49.265 18.6536 48.7884 18.3999 48.5063 17.9414C48.0881 17.2487 48.3118 16.3511 49.0024 15.9316L56.1027 11.6389C56.7932 11.2194 57.6881 11.4438 58.1063 12.1365C58.5246 12.8292 58.3009 13.7267 57.6103 14.1463L50.51 18.4389C50.2765 18.5853 50.0139 18.6438 49.761 18.6438V18.6536Z" fill="#4169E1"/>
<path d="M25.795 58.2829C25.795 62.8097 28.5573 64 31.9713 64C35.3853 64 38.1379 62.8097 38.1379 58.2829H25.795Z" fill="#4169E1"/>
</svg>
