<svg width="64" height="64" viewBox="0 0 64 64" fill="none" xmlns="http://www.w3.org/2000/svg">
<g clip-path="url(#clip0_1195_7770)">
<path d="M31.9879 9.31055C44.2462 9.32218 54.1733 19.2687 54.1616 31.527C54.15 43.7852 44.2035 53.7123 31.9452 53.7007C19.7025 53.6891 9.78055 43.7658 9.77149 31.5218C9.75986 19.2661 19.6844 9.32218 31.9401 9.31055C31.9556 9.31055 31.9711 9.31055 31.9879 9.31055ZM24.5264 42.9021C29.3387 41.1916 34.5944 41.1903 39.408 42.8996L40.0997 40.2969C40.4191 40.2969 40.7113 40.2891 41.0061 40.2995C41.3099 40.2749 41.6151 40.2917 41.9137 40.3525C41.7056 41.4321 41.4431 42.5013 41.125 43.5538C41.9448 44.0063 42.7593 44.4162 43.5338 44.892C44.3082 45.3665 45.0413 45.9017 45.7899 46.4099C54.7887 38.1636 54.2276 24.1379 45.755 16.582C44.325 17.7068 42.767 18.6597 41.1134 19.4187C41.4276 20.5319 41.7275 21.5985 41.9254 22.6988H40.0829C39.9704 22.2554 39.8683 21.8313 39.7558 21.4111C39.6588 20.9715 39.5309 20.5409 39.3705 20.1207C34.5686 21.8222 29.3271 21.8196 24.5264 20.113L23.8321 22.7234C23.5127 22.7234 23.218 22.7247 22.9245 22.7234C22.6245 22.7208 22.3245 22.7156 21.9677 22.7105L22.8042 19.4096C21.1544 18.6533 19.6016 17.703 18.1781 16.5755C9.23622 24.73 9.61246 38.7544 18.1781 46.428C19.612 45.3018 21.1725 44.3476 22.8275 43.5861C22.4952 42.5091 22.2198 41.414 22.0039 40.3085H23.8412L24.5264 42.9021ZM38.7706 18.3882C38.7603 18.3158 38.7447 18.2447 38.7254 18.1736C38.1616 16.6544 37.3885 15.2218 36.4304 13.916C35.8137 13.0587 35.0353 12.3295 34.1393 11.7697C32.8891 10.959 31.2923 10.9151 29.9994 11.6559C29.168 12.1227 28.4349 12.7459 27.8415 13.4919C26.8873 14.671 26.1102 15.9834 25.5323 17.3862C25.3965 17.7004 25.2724 18.0197 25.1276 18.374C29.5378 19.9565 34.3591 19.9617 38.7706 18.3882ZM25.1496 44.623C25.1806 44.7291 25.1936 44.7911 25.2155 44.848C25.7418 46.2573 26.4451 47.5929 27.3088 48.8251C27.8738 49.6383 28.5655 50.3572 29.3581 50.9519C31.0221 52.166 32.827 52.1815 34.5078 50.9985C35.0832 50.5873 35.6029 50.1025 36.0542 49.5581C37.2023 48.1372 38.1073 46.5353 38.7318 44.8183C38.7499 44.7523 38.7616 44.6851 38.768 44.6179C34.363 43.0508 29.5533 43.0534 25.1496 44.623ZM37.1583 51.1523C39.7662 50.4955 42.2111 49.3073 44.3367 47.6601C43.1692 46.7525 41.9021 45.9806 40.5613 45.3587C40.0519 46.3969 39.5839 47.4093 39.0641 48.3945C38.5275 49.3771 37.8888 50.3016 37.1583 51.1523ZM26.7955 51.1601C26.0585 50.3197 25.4159 49.3991 24.8807 48.4165C24.3506 47.4235 23.8838 46.3982 23.3744 45.3574C22.0323 45.9806 20.764 46.7525 19.5965 47.6601C21.7298 49.3086 24.1799 50.5007 26.7955 51.1601ZM40.4941 17.6448C41.4754 17.3138 43.9372 15.7881 44.2798 15.302C42.1633 13.6729 39.7338 12.4976 37.1428 11.8486C38.6387 13.5617 39.664 15.5334 40.4941 17.6448ZM26.7593 11.8628C24.1657 12.5144 21.7337 13.6962 19.6172 15.3317C20.3774 16.039 22.7305 17.4508 23.4494 17.6293C24.22 15.5347 25.3384 13.585 26.7593 11.8628Z" fill="#F8F9FC"/>
<path d="M43.7921 59.8649C43.796 60.5372 43.6525 61.2018 43.3719 61.8133C42.8431 62.9938 41.6924 63.7721 40.4007 63.8238C39.9392 63.8665 39.4737 63.829 39.0264 63.7113C37.8782 63.4256 36.9641 62.5581 36.6163 61.4267C36.2672 60.4092 36.2621 59.305 36.6008 58.2849C37.021 56.9015 38.2584 55.9266 39.7013 55.8426C40.4732 55.7585 41.2528 55.9137 41.9342 56.2861C42.8444 56.7993 43.4766 57.6928 43.6576 58.7219C43.7326 59.0956 43.7494 59.4835 43.7921 59.8649ZM38.9798 59.8222L39.0445 59.8274C39.0445 60.1222 39.0251 60.4183 39.0483 60.7118C39.0522 61.2263 39.1621 61.7332 39.3703 62.2038C39.4892 62.4688 39.7504 62.6421 40.04 62.6499C40.3452 62.6705 40.6309 62.496 40.7524 62.2154C40.8559 62.0099 40.9308 61.7913 40.9748 61.5651C41.1494 60.5398 41.1687 59.4938 41.0317 58.4633C40.9864 58.1349 40.8998 57.8117 40.7757 57.504C40.68 57.2131 40.4059 57.0179 40.0995 57.023C39.7814 57.0114 39.4905 57.1963 39.3651 57.4872C39.2785 57.6449 39.219 57.8156 39.1893 57.9927C39.1065 58.6017 39.047 59.212 38.9798 59.8222Z" fill="#F8F9FC"/>
<path d="M35.6484 59.8622C35.6911 60.5449 35.5566 61.2263 35.2592 61.8417C34.7084 63.0428 33.5125 63.816 32.1924 63.8289C31.6015 63.8729 31.0081 63.7785 30.4586 63.5548C29.5277 63.1721 28.8166 62.3951 28.5179 61.4344C28.174 60.4298 28.1636 59.3412 28.4869 58.3288C28.9032 56.8846 30.2077 55.8774 31.7101 55.8386C32.8854 55.7804 33.9172 56.1024 34.7188 57.01C35.2683 57.6474 35.5928 58.4465 35.6432 59.2869C35.6613 59.4756 35.6484 59.6696 35.6484 59.8622ZM33.0418 59.932C33.0069 59.389 33.0056 58.9753 32.9475 58.5719C32.8983 58.2176 32.813 57.8685 32.6928 57.5324C32.601 57.2246 32.3152 57.0152 31.9946 57.0178C31.661 57.0035 31.3572 57.2117 31.2498 57.5285C31.1322 57.7845 31.0559 58.0586 31.0249 58.3379C30.977 59.1679 30.9486 60.0019 30.9602 60.8332C30.9512 61.3103 31.0598 61.7835 31.2744 62.2102C31.4425 62.5903 31.8873 62.7623 32.2687 62.5942C32.4277 62.5231 32.5583 62.4002 32.6372 62.2438C32.76 62.033 32.8414 61.8016 32.8764 61.5598C32.9552 60.9754 32.9966 60.3884 33.0393 59.932H33.0418Z" fill="#F8F9FC"/>
<path d="M13.7851 57.6384C13.8278 57.6565 13.8731 57.6694 13.9183 57.6798C14.3657 57.6733 14.7341 58.0314 14.7406 58.4788C14.7406 58.5059 14.7406 58.5331 14.738 58.5589C14.7755 59.0826 14.4187 59.5519 13.9054 59.6566C13.7282 59.6864 13.5472 59.6954 13.3675 59.6838C12.8012 59.6709 12.3371 59.2313 12.2918 58.6663C12.1871 57.9383 12.456 57.2078 13.0068 56.7204C13.5886 56.2032 14.3282 55.8981 15.1052 55.8541C16.0426 55.7248 16.9968 55.9136 17.8152 56.3894C18.719 56.9066 19.1611 57.9681 18.8909 58.974C18.759 59.4924 18.419 59.9333 17.951 60.1919C17.417 60.5022 16.8455 60.7414 16.2508 60.9069C15.8215 61.0388 15.3858 61.1551 14.9656 61.3129C14.5712 61.4241 14.2325 61.6801 14.0166 62.0292C14.1006 62.0085 14.1834 61.9839 14.2648 61.9542C14.9565 61.6284 15.7413 61.5572 16.4809 61.7538C16.7162 61.8184 16.9554 61.8701 17.1959 61.9102C17.7169 61.9878 17.9251 61.8158 17.9872 61.2806C17.9962 61.2043 18.0001 61.128 18.0117 61.0026C18.4112 60.9754 18.812 60.9767 19.2116 61.0077C19.2581 61.7072 19.2581 62.3783 18.9155 63.0014C18.5961 63.5846 18.0453 63.772 17.4338 63.825C16.8429 63.8638 16.2495 63.7927 15.6845 63.6143C15.3147 63.5083 14.9462 63.3893 14.5699 63.3117C14.1989 63.2355 13.8149 63.1876 13.5834 63.5962H12.3073C12.2517 63.0144 12.3603 62.4274 12.6241 61.905C12.9551 61.3051 13.4335 60.7996 14.014 60.4363C14.4471 60.1376 14.9022 59.87 15.3444 59.5855C15.5086 59.4847 15.6676 59.3748 15.8189 59.2558C16.1499 58.9985 16.3348 58.5964 16.3154 58.1775C16.3232 57.7935 16.0956 57.4431 15.7413 57.2932C15.0832 56.9867 14.301 57.1238 13.7851 57.6384Z" fill="#F8F9FC"/>
<path d="M22.0634 56.0505C22.0789 56.2974 22.0906 56.4939 22.1048 56.7396C22.1552 56.6995 22.2044 56.6543 22.2483 56.6064C22.7241 55.9561 23.3887 55.8035 24.1308 55.9328C24.5058 56.0155 24.8755 56.1229 25.2376 56.2521C25.4574 56.3194 25.6759 56.3957 25.8931 56.4719C26.0728 56.5444 26.2771 56.5017 26.4141 56.3659L26.5434 56.066H27.5157C27.5842 56.278 27.5739 56.5069 27.486 56.7111C27.2597 57.227 27.036 57.7455 26.7723 58.242C26.4348 58.8755 26.0469 59.4832 25.7017 60.1128C25.2104 61.0644 24.9505 62.1169 24.9402 63.1874C24.935 63.3128 24.9273 63.4382 24.9195 63.5856H22.4332C22.3724 63.2973 22.3634 62.9999 22.4061 62.7077C22.4797 61.6062 22.9568 60.5705 23.7481 59.7999C24.2705 59.2867 24.8135 58.7953 25.3449 58.2924C25.4638 58.1786 25.5737 58.0558 25.7534 57.8696C25.6009 57.9045 25.5362 57.9123 25.4755 57.933C24.9441 58.092 24.3816 58.1153 23.8386 58.0028C23.549 57.9472 23.2568 57.9071 22.9633 57.8851C22.5599 57.836 22.194 58.123 22.1449 58.5264C22.1449 58.5303 22.1436 58.5342 22.1436 58.5368C22.1074 58.7255 22.0841 58.9156 22.0738 59.1082C22.0621 59.2324 22.0621 59.3591 22.0544 59.5039H20.7227V56.066C20.9437 56.0608 21.1571 56.053 21.3704 56.0492C21.585 56.0492 21.8048 56.0505 22.0634 56.0505Z" fill="#F8F9FC"/>
<path d="M45.7904 57.0342C46.5053 56.9204 47.2165 56.8131 47.5798 56.0684H49.5088C49.5153 56.2106 49.5243 56.3463 49.5256 56.4834C49.5269 58.2288 49.5269 59.9756 49.5256 61.721C49.5256 61.8116 49.523 61.9008 49.5256 61.9913C49.5386 62.3843 49.6601 62.5149 50.0609 62.5395C50.251 62.5511 50.4423 62.5421 50.6531 62.5421C50.6944 62.8769 50.7048 63.2144 50.6854 63.5505C50.379 63.6268 46.4291 63.6527 45.7968 63.5855V62.5886C46.1511 62.4748 46.5622 62.6455 46.963 62.383C47.0148 62.246 47.0484 62.1038 47.0639 61.9589C47.0742 60.7397 47.0704 59.5192 47.0691 58.3C47.0613 58.2366 47.0484 58.1745 47.029 58.1138H45.7891L45.7904 57.0342Z" fill="#F8F9FC"/>
<path d="M31.7305 0L32.2968 2.31046L32.3795 2.30917L33.0066 0.0362019H34.5555V3.96412H33.5949V1.18303C33.2458 2.08162 33.035 3.0177 32.7493 3.95119H31.8649L31.181 1.12485L31.0995 1.12743C31.0956 1.35628 31.0905 1.58513 31.0879 1.81398C31.0853 2.04283 31.084 2.27685 31.0814 2.50828C31.0788 2.75265 31.0827 2.99701 31.0724 3.24137C31.062 3.46893 31.0362 3.69648 31.0142 3.95895L30.1596 3.9124C30.0755 3.63184 30.0781 0.592162 30.1609 0H31.7305Z" fill="#F8F9FC"/>
<path d="M51.7734 12.3523L50.933 11.5999L51.2756 9.04374L51.2084 9.01529L49.7939 10.5642L48.9639 9.79881L51.6351 6.85352L52.4638 7.62669L52.1083 10.1867L52.1716 10.2216L53.6029 8.65974L54.4459 9.41481L51.7734 12.3523Z" fill="#F8F9FC"/>
<path d="M15.2141 7.3226L13.991 5.6573L14.896 4.97852L17.2556 8.16946L16.348 8.85213L13.819 7.97423C14.2508 8.62716 14.6917 9.16502 15.1081 9.75848L14.2043 10.4334L11.8408 7.24243L12.7485 6.57011L15.1481 7.40147L15.2141 7.3226Z" fill="#F8F9FC"/>
<path d="M61.0667 33.0286C60.6142 33.5393 60.2095 33.7902 59.2734 34.1315V32.8269L60.5315 32.1831C60.728 32.1132 60.8793 31.9516 60.9374 31.7499C60.9439 31.6724 60.9452 31.5948 60.9387 31.5159H59.3717C59.3303 31.1125 59.329 30.7065 59.3665 30.3031C60.6892 30.2566 61.9873 30.3859 63.3125 30.3691C63.3125 30.757 63.319 31.1009 63.3113 31.4448C63.3009 31.8689 63.2776 32.2917 63.2582 32.7145C63.2544 32.7907 63.2531 32.8683 63.2414 32.9446C63.1574 33.5212 62.8497 33.8561 62.3571 33.9078C61.814 34.0229 61.2749 33.701 61.1172 33.1696C61.1029 33.1269 61.0874 33.0816 61.0667 33.0286ZM62.3183 32.6563C62.5316 32.3473 62.5614 32.1223 62.4618 31.5844L61.7378 31.5366C61.6511 31.7667 61.633 32.0163 61.6873 32.2568C61.7688 32.6692 61.8658 32.7338 62.3183 32.6563Z" fill="#F8F9FC"/>
<path d="M25.1523 0.698678C25.8518 0.582314 26.506 0.471122 27.1628 0.367688C27.3775 0.3289 27.5947 0.30692 27.8119 0.301748C28.2799 0.265546 28.7066 0.569385 28.8268 1.02191C28.9846 1.48866 28.8139 2.00324 28.4092 2.28381C28.3394 2.33294 28.267 2.3769 28.1843 2.42991C28.7687 2.76349 29.0273 3.04534 29.6039 3.97237C29.3828 4.01375 29.1746 4.05512 28.9652 4.09132C28.7506 4.12882 28.5359 4.16114 28.2967 4.19993C28.0007 3.81981 27.7007 3.4371 27.4033 3.0531C27.2702 2.82167 26.9818 2.72987 26.7388 2.84235L26.9793 4.41326L25.7975 4.61108L25.1523 0.698678ZM27.6981 1.61536C27.6619 1.29989 27.521 1.13181 27.2689 1.14862C26.9948 1.13957 26.722 1.19646 26.4737 1.31411L26.6172 2.08082C27.0555 2.01359 27.4835 2.05367 27.6981 1.61536Z" fill="#F8F9FC"/>
<path d="M20.3906 3.38931C20.3971 2.04466 21.6267 1.47965 22.6533 1.45379C23.932 1.42147 24.5526 2.56442 24.5888 3.70608C24.6276 4.97315 23.5299 5.59763 22.2951 5.63901C21.1134 5.67909 20.4501 4.56458 20.3906 3.38931ZM23.4096 3.87287C23.3928 3.46171 23.2583 3.06349 23.023 2.72604C22.8084 2.43771 22.427 2.33169 22.0947 2.46874C21.7637 2.57347 21.5452 2.88765 21.5607 3.23416C21.5775 3.65953 21.7262 4.06939 21.9861 4.40555C22.1956 4.68353 22.5692 4.77662 22.8847 4.63181C23.2196 4.53743 23.4394 4.21937 23.4096 3.87287Z" fill="#F8F9FC"/>
<path d="M49.8635 6.47944C49.8182 7.34183 49.3295 8.11888 48.5718 8.53261C48.1788 8.73948 47.7172 8.77181 47.2996 8.62312C46.8173 8.47573 46.3842 8.20033 46.0455 7.82797C45.6459 7.40906 45.4947 6.81173 45.6472 6.25189C45.7714 5.72179 46.0597 5.24599 46.4708 4.88914C46.944 4.44696 47.628 4.31379 48.2318 4.54651C48.7231 4.70813 49.1575 5.0068 49.4846 5.4076C49.7394 5.70627 49.8738 6.08769 49.8635 6.47944ZM48.7412 6.32688C48.7412 5.76833 48.0922 5.22142 47.5491 5.55888C47.0876 5.83298 46.7837 6.31007 46.732 6.84405C46.6751 7.40777 47.3487 7.88744 47.8375 7.62886C48.3184 7.35346 48.6507 6.87508 48.7412 6.32688Z" fill="#F8F9FC"/>
<path d="M2.80997 37.3067C1.79502 37.3067 1.14597 36.8218 0.923587 35.8818C0.838254 35.547 0.809808 35.2005 0.839546 34.8553C0.936515 33.9799 1.38516 33.499 2.24108 33.2831C2.60052 33.1848 2.97547 33.1576 3.34524 33.2029C4.01757 33.2688 4.58387 33.7317 4.7804 34.3782C4.92779 34.7919 4.97951 35.2328 4.93038 35.6698C4.87866 36.2878 4.48949 36.8257 3.9206 37.07C3.57409 37.2368 3.19397 37.3183 2.80997 37.3067ZM3.10605 34.373C2.75826 34.3639 2.41304 34.4428 2.10403 34.6031C1.82346 34.7777 1.67995 35.1087 1.7433 35.4332C1.77821 35.7655 2.03292 36.0331 2.36262 36.0835C2.76989 36.1611 3.19009 36.1107 3.56763 35.9413C3.87793 35.8198 4.06929 35.5056 4.03567 35.1733C4.0124 34.6523 3.69304 34.3756 3.10605 34.373Z" fill="#F8F9FC"/>
<path d="M63.2587 28.8199C62.9755 28.8677 62.7273 28.913 62.4777 28.9492C61.945 29.0268 61.4111 29.1082 60.8771 29.1742C60.1065 29.2711 59.2803 28.9233 59.089 27.973C59.0088 27.5968 58.9687 27.2141 58.9687 26.8301C58.9467 26.2547 59.3113 25.735 59.8608 25.5617C60.2642 25.4376 60.678 25.3484 61.0969 25.2954C61.6153 25.21 62.1377 25.1518 62.6587 25.082C62.8087 25.4544 62.8708 25.8565 62.8384 26.256C62.2902 26.3362 61.7343 26.415 61.177 26.4965C60.9353 26.5314 60.6909 26.5495 60.4543 26.6025C60.0819 26.6516 59.8195 26.993 59.8686 27.3653C59.8789 27.4481 59.9048 27.527 59.9449 27.6007C60.0315 27.8541 60.2836 28.0144 60.55 27.9834C60.8823 27.9562 61.2119 27.911 61.5429 27.8657C61.9618 27.8088 62.3808 27.7416 62.7997 27.6847C62.894 27.6782 62.9884 27.6782 63.0841 27.6834L63.2587 28.8199Z" fill="#F8F9FC"/>
<path d="M58.7157 19.8551L57.8572 18.1342L57.1292 18.4936L58.064 20.3891L57.3064 20.7757C57.2702 20.7317 57.2379 20.6839 57.2081 20.636C56.7453 19.7038 56.285 18.7716 55.7988 17.7916L59.3673 16.0332L60.8141 18.9707L60.0862 19.3392L59.1553 17.4929L58.5657 17.7787L59.4074 19.5008L58.7157 19.8551Z" fill="#F8F9FC"/>
<path d="M57.7518 15.4432L57.1027 14.6196C57.3161 14.1102 57.2618 13.7727 56.9489 13.5904C56.7756 13.4896 56.698 13.518 56.4925 13.7766L56.6644 14.2977C56.7692 14.6144 56.8933 14.926 56.9734 15.248C57.1027 15.6527 56.9799 16.0948 56.6618 16.3767C56.327 16.6961 55.8395 16.7969 55.4051 16.6379C55.2357 16.5797 55.078 16.4918 54.9384 16.3793C54.4871 16.0108 54.1561 15.5169 53.9868 14.9597C53.8264 14.427 54.0372 13.8516 54.5039 13.5465L55.1763 14.3933C54.9965 14.6532 54.8194 14.9157 54.9694 15.2415C55.0521 15.4781 55.2577 15.6501 55.506 15.6876C55.8512 15.5544 55.9391 15.4148 55.8538 15.0851C55.802 14.8872 55.6999 14.7024 55.6521 14.5045C55.5641 14.1852 55.5034 13.8581 55.4698 13.5284C55.4232 12.8716 56.1279 12.4281 56.7161 12.5871C56.8545 12.6182 56.9851 12.6738 57.104 12.75C57.682 13.1483 58.0815 13.7572 58.2159 14.4464C58.2819 14.7916 58.1267 15.1019 57.7518 15.4432Z" fill="#F8F9FC"/>
<path d="M2.53635 38.5005L2.91647 39.5322C2.62815 39.7481 2.47171 40.0054 2.63591 40.3636C2.73159 40.573 2.8027 40.6144 3.08973 40.6053C3.2966 40.4463 3.23971 40.2213 3.23712 40.0054C3.21902 39.6098 3.22419 39.2129 3.24876 38.8185C3.33926 37.8734 4.47187 37.5851 5.14678 38.1009C5.29159 38.2083 5.41441 38.3414 5.51138 38.4927C5.86047 39.0383 6.01433 39.6874 5.9471 40.3325C5.88504 40.8445 5.52948 41.1225 5.05886 41.3423L4.66839 40.3119C5.29288 39.7727 5.28512 39.2323 4.66193 38.9556C4.3193 39.0564 4.25336 39.1236 4.24173 39.4495C4.23268 39.7055 4.25983 39.9641 4.24819 40.2201C4.24561 40.4631 4.21845 40.7062 4.16544 40.9441C4.03357 41.4832 3.49053 41.8142 2.95009 41.6836C2.82468 41.6526 2.70702 41.5983 2.601 41.5233C2.46136 41.4315 2.34241 41.3126 2.24803 41.1742C1.88989 40.6493 1.72827 40.0145 1.79033 39.3809C1.84593 38.9672 2.13684 38.622 2.53635 38.5005Z" fill="#F8F9FC"/>
<path d="M39.2221 4.84826L38.0145 4.61553C37.9757 4.36212 37.9447 4.15137 37.911 3.93028L36.5418 3.66911L36.1798 4.27291L35.002 4.04018L37.2038 0.427734L38.4954 0.673391C38.7579 2.0426 38.9881 3.41182 39.2221 4.84826ZM37.8192 3.06919C37.8141 2.58563 37.7365 2.10596 37.5904 1.64438L36.9375 2.88559L37.8192 3.06919Z" fill="#F8F9FC"/>
<path d="M6.67613 19.1992C6.46538 19.1501 6.24946 19.1178 6.04388 19.0492C5.54481 18.8812 5.07936 18.6239 4.67209 18.2903C4.13811 17.9283 3.94934 17.2288 4.2299 16.647C4.31782 16.4207 4.43677 16.2061 4.58287 16.0122C4.8699 15.5984 5.3819 15.4032 5.87192 15.5196C6.56752 15.6618 7.21011 15.9889 7.73504 16.4673C8.24186 16.8474 8.38667 17.5443 8.07249 18.0951C7.96388 18.3265 7.82813 18.5437 7.6678 18.7428C7.42215 19.0363 7.05883 19.2044 6.67613 19.1992ZM6.82611 18.1895C7.10926 18.1998 7.26441 18.1235 7.33811 17.9451C7.42473 17.7486 7.36655 17.5184 7.19588 17.3878C6.71362 16.9638 6.14085 16.656 5.52025 16.4867C5.31467 16.4194 5.091 16.5086 4.98885 16.7C4.89447 16.8603 4.91128 17.062 5.03152 17.2029C5.06772 17.256 5.11168 17.3025 5.16211 17.3426C5.60687 17.6891 6.10465 17.9632 6.63475 18.1545C6.69681 18.1726 6.76146 18.1843 6.82611 18.1895Z" fill="#F8F9FC"/>
<path d="M59.8576 23.5349V24.524C59.2099 24.6908 58.5363 24.374 58.2505 23.7689C58.0617 23.403 57.9506 23.0009 57.9247 22.5897C57.8652 21.9291 58.204 21.2981 58.7871 20.9826C59.237 20.7021 59.7607 20.5599 60.2921 20.5754C60.7355 20.5754 61.1583 20.7641 61.4531 21.0951C61.8875 21.58 62.1138 22.2161 62.0841 22.8664C62.0582 23.3759 61.7776 23.8374 61.3393 24.0973L60.8105 23.1832C60.8596 23.1276 60.9036 23.0824 60.9437 23.0345C61.2294 22.7203 61.2062 22.2355 60.8933 21.9497C60.7265 21.7972 60.5002 21.7261 60.2752 21.7558C59.9106 21.8243 59.5577 21.942 59.2241 22.1049C58.9254 22.2355 58.7729 22.5691 58.8698 22.8807C58.9203 23.1961 59.1685 23.4418 59.484 23.4909C59.5939 23.5116 59.7089 23.5168 59.8576 23.5349Z" fill="#F8F9FC"/>
<path d="M4.92732 22.7247C4.20458 22.6484 3.51674 22.3808 2.93104 21.9502C2.53799 21.6774 2.35439 21.1913 2.46946 20.7271C2.52506 20.4517 2.61169 20.1841 2.72805 19.9294C2.95173 19.4135 3.49734 19.1161 4.05201 19.2079C4.73209 19.27 5.38502 19.5066 5.94744 19.8945C6.4853 20.1996 6.72191 20.85 6.50599 21.4292C6.45815 21.6012 6.3948 21.7705 6.31981 21.9321C6.06639 22.4816 5.62421 22.7286 4.92732 22.7247ZM5.19237 21.7266C5.50268 21.724 5.66688 21.6205 5.73799 21.424C5.8091 21.2365 5.74058 21.0245 5.57379 20.9133C5.45742 20.8125 5.32813 20.7284 5.18979 20.6625C4.88466 20.5319 4.57048 20.4168 4.25629 20.3069C4.11019 20.2578 3.96021 20.2242 3.80765 20.2035C3.57233 20.1595 3.33702 20.2849 3.24264 20.5047C3.16765 20.6948 3.22454 20.8655 3.43658 21.0387C3.5232 21.115 3.62146 21.1771 3.72749 21.2236C4.12054 21.3775 4.51617 21.5236 4.91439 21.6645C5.00619 21.6917 5.10058 21.7111 5.19625 21.724L5.19237 21.7266Z" fill="#F8F9FC"/>
<path d="M1.96198 29.251L1.77968 30.2582C0.997455 30.0979 0.648363 29.6751 0.667757 28.8968C0.675514 28.5761 0.720767 28.2581 0.803514 27.9478C0.944443 27.3491 1.54436 26.9768 2.14299 27.1177C2.30331 27.1552 2.45329 27.2276 2.58129 27.3297C2.8722 27.5638 3.11139 27.8547 3.28465 28.1857C3.43333 28.4223 3.58202 28.6589 3.75398 28.9343C3.94016 28.6446 3.85612 28.3693 3.89749 28.1158C3.94016 27.8521 3.95697 27.5844 3.99059 27.269L4.85168 27.3155C4.75083 28.4326 4.65515 29.5019 4.55689 30.6125C4.17677 30.5336 3.82897 30.3436 3.55616 30.0669C3.30016 29.7811 3.07778 29.4644 2.85022 29.1554C2.71317 28.9692 2.59422 28.7701 2.46493 28.58C2.42226 28.5166 2.37313 28.4559 2.32012 28.4003C2.18048 28.2244 1.94905 28.1482 1.73184 28.2051C1.54436 28.2723 1.41636 28.4455 1.4099 28.6446C1.40214 28.8709 1.54178 29.0765 1.75511 29.1515C1.81329 29.1747 1.86889 29.2045 1.96198 29.251Z" fill="#F8F9FC"/>
<path d="M19.3291 4.33766L19.6847 5.01128L18.3219 5.74825L19.064 7.18599L18.0038 7.75229L16.1562 4.23552L18.8274 2.83398L19.2231 3.55156L17.6328 4.40231L17.956 5.04619L19.3291 4.33766Z" fill="#F8F9FC"/>
<path d="M58.3209 43.511L56.8018 42.8464L57.2801 41.75L58.8187 42.4029L61.5416 41.9207L61.0102 43.127L59.4419 43.3416L60.3508 44.6319L59.8259 45.8512L58.3209 43.511Z" fill="#F8F9FC"/>
<path d="M41.3355 5.60646L40.2042 5.22117L41.1532 2.41292C40.7989 2.17632 40.3748 2.14141 39.9844 1.93583L40.2895 1.05664L43.8127 2.25519L43.5076 3.15119L42.3116 2.76331L41.3355 5.60646Z" fill="#F8F9FC"/>
<path d="M58.5825 37.7182L61.4903 38.4784L61.8291 37.2695L62.7406 37.5087L61.8032 41.0966L60.8788 40.8716L61.1891 39.6524L58.2852 38.8779L58.5825 37.7182Z" fill="#F8F9FC"/>
<path d="M1.921 26.1301L1.0625 25.9258L1.76456 22.8086L2.46145 22.9612C3.10404 24.0123 4.12416 24.7803 5.31236 25.1074L5.08222 26.1327C4.00779 25.7978 3.06913 25.1268 2.40327 24.2179C2.18606 24.8695 2.1227 25.4927 1.921 26.1301Z" fill="#F8F9FC"/>
<path d="M7.68344 13.7612C7.60716 14.1439 7.5438 14.4697 7.47528 14.7942C7.4533 14.8602 7.42356 14.9248 7.38865 14.9856L6.7034 14.4839C6.89346 13.9008 6.97233 13.3229 6.65039 12.7553L7.18437 12.0273L10.4309 14.4206L9.79221 15.3023L7.68344 13.7612Z" fill="#F8F9FC"/>
<path d="M13.5038 11.0638L12.675 11.9507L9.94434 9.07913L10.7809 8.20898L13.5038 11.0638Z" fill="#F8F9FC"/>
<path d="M44.1954 6.84267L43.1094 6.32033L44.8018 2.73633L45.8982 3.24574L44.1954 6.84267Z" fill="#F8F9FC"/>
<path d="M6.60344 41.623L7.07923 42.7311L3.43705 44.3046L2.95996 43.1978L6.60344 41.623Z" fill="#F8F9FC"/>
<path d="M58.9658 35.8349L59.1378 34.6699C60.4462 34.8277 61.7262 35.0242 63.0515 35.2233L62.8899 36.3934C61.5672 36.2305 60.282 36.0417 58.9658 35.8349Z" fill="#F8F9FC"/>
<path d="M49.1823 31.525C49.1939 32.558 48.9638 33.5807 48.5125 34.509C47.9333 35.6429 46.9597 36.526 45.7741 36.9915C44.913 37.3328 44.0002 37.5229 43.0745 37.5565C41.9962 37.6418 40.9114 37.5242 39.877 37.2113C37.639 36.4937 36.2982 34.9848 35.9569 32.6343C35.7875 31.5637 35.856 30.4699 36.1573 29.4291C36.6111 27.8414 37.7915 26.5653 39.3392 25.9873C40.6657 25.4831 42.0957 25.3073 43.505 25.4766C44.3144 25.5309 45.1082 25.7236 45.853 26.0442C47.6178 26.7722 48.85 28.4012 49.0698 30.298C49.1292 30.704 49.1461 31.1164 49.1823 31.525ZM44.7863 31.525C44.7501 30.9755 44.732 30.4221 44.6712 29.8752C44.626 29.2585 44.4592 28.6585 44.1799 28.1065C43.8709 27.4923 43.2322 27.1135 42.5457 27.1381C41.8462 27.1031 41.1894 27.4794 40.8661 28.1013C40.6386 28.5344 40.4912 29.0037 40.4291 29.4886C40.2481 30.6833 40.2261 31.896 40.3645 33.0959C40.4071 33.6467 40.539 34.1884 40.7549 34.6965C41.1713 35.6701 42.3 36.1226 43.2736 35.7063C43.7015 35.5227 44.048 35.1904 44.2497 34.7715C44.3687 34.5155 44.4618 34.2492 44.5251 33.9738C44.6997 33.1683 44.7863 32.3486 44.7863 31.525Z" fill="#F8F9FC"/>
<path d="M32.3931 29.659C32.3169 29.4482 32.2587 29.2789 32.1966 29.1108C31.7751 27.9782 30.927 27.4015 29.7556 27.2761C29.3095 27.2076 28.8531 27.2322 28.4174 27.3485C28.1316 27.4313 27.8743 27.589 27.6714 27.8075C27.2537 28.2691 27.299 28.7888 27.8291 29.1121C28.1381 29.2944 28.4717 29.4327 28.8182 29.5232C29.5474 29.7236 30.2934 29.8684 31.0252 30.065C31.876 30.2705 32.6879 30.6093 33.4327 31.0696C34.233 31.5674 34.7463 32.4194 34.8109 33.3594C34.9467 34.3135 34.679 35.2806 34.0714 36.0293C33.6098 36.571 33.0099 36.977 32.335 37.2032C31.4325 37.5071 30.477 37.6286 29.5267 37.5601C28.4083 37.4993 27.3132 37.2162 26.3047 36.7274C26.2608 36.7067 26.2116 36.6938 26.1367 36.668L25.7074 37.2718H24.1921V33.0814C24.4533 33.0413 24.7196 33.0309 24.9834 33.049C25.2394 33.0426 25.4954 33.0478 25.7837 33.0478C25.8367 33.1861 25.8832 33.3154 25.9362 33.4421C26.4638 34.6988 27.3494 35.5405 28.716 35.803C29.1699 35.9077 29.6418 35.8974 30.0904 35.7733C30.3361 35.7008 30.5649 35.5845 30.7679 35.428C31.1597 35.1488 31.2515 34.6044 30.9735 34.2127C30.9166 34.1325 30.8468 34.0627 30.7666 34.0058C30.4369 33.7627 30.071 33.5714 29.6832 33.4395C28.932 33.1783 28.1575 32.987 27.3998 32.7452C26.871 32.5862 26.3513 32.3987 25.8432 32.1841C24.8773 31.7548 24.1701 31.0566 23.9555 29.9951C23.6129 28.3001 24.3253 26.8262 25.8794 26.0065C26.5452 25.6664 27.2783 25.4764 28.0243 25.4466C29.4401 25.3419 30.861 25.5992 32.1501 26.1939C32.1966 26.2159 32.2457 26.2314 32.3298 26.2638L32.644 25.7388H34.2394V29.6499C33.9434 29.6525 33.6408 29.6577 33.3396 29.659C33.0293 29.6603 32.7215 29.659 32.3931 29.659Z" fill="#F8F9FC"/>
<path d="M22.8377 35.6282V37.2043H16.0977V35.6282C16.3058 35.6282 16.5088 35.6321 16.7092 35.6269C16.8501 35.6269 16.9911 35.6153 17.1307 35.592C17.344 35.5713 17.5147 35.4033 17.5393 35.1899C17.5703 35.0257 17.591 34.8602 17.5987 34.6947C17.6026 32.5614 17.6026 30.4268 17.5987 28.2934C17.5975 27.5384 17.4177 27.3664 16.6627 27.3535C16.4842 27.3509 16.3045 27.3535 16.0977 27.3535V25.7852H22.7911C22.8791 26.2946 22.8868 26.8156 22.8131 27.3276C22.72 27.3367 22.6218 27.3483 22.5222 27.3548C22.4227 27.3612 22.3166 27.3548 22.2132 27.3574C21.5254 27.3819 21.3625 27.5293 21.3625 28.2081C21.356 30.3932 21.356 32.5782 21.3625 34.7633C21.3651 35.464 21.5293 35.6153 22.2339 35.6282C22.4253 35.6308 22.6153 35.6282 22.8377 35.6282Z" fill="#F8F9FC"/>
</g>
<defs>
<clipPath id="clip0_1195_7770">
<rect width="64" height="64" fill="white"/>
</clipPath>
</defs>
</svg>
