<svg width="127" height="40" viewBox="0 0 127 40" fill="none" xmlns="http://www.w3.org/2000/svg">
<g clip-path="url(#clip0_835_6775)">
<mask id="mask0_835_6775" style="mask-type:luminance" maskUnits="userSpaceOnUse" x="0" y="6" width="127" height="28">
<path d="M126.178 6H0.34668V34H126.178V6Z" fill="white"/>
</mask>
<g mask="url(#mask0_835_6775)">
<path d="M68.4237 22.6627L66.2646 21.3807C63.8357 20.0313 62.5538 19.1542 62.5538 17.5349C62.5538 16.3205 63.6333 15.3758 65.0502 15.3758C67.8839 15.3758 69.2333 17.6024 69.5707 20.3687H70.0429L71.1225 14.3638C70.1779 13.959 68.6935 13.6891 67.2092 13.6891C62.014 13.6891 59.4502 16.4554 59.4502 19.6265C59.4502 22.3253 61.6767 23.7421 63.4309 24.6867L66.3996 26.3734C68.3562 27.3855 69.3008 28.3976 69.3008 29.8819C69.3008 31.0289 68.4237 32.3783 66.3996 32.3783C63.6333 32.3783 61.4068 29.8819 60.5297 26.306H60.1249L58.9779 27.8578C57.4935 29.612 55.8068 31.0289 53.108 31.0289C48.9249 31.0289 46.9682 27.9253 46.9682 23.7421H57.2237V20.9758C57.2237 17.1301 55.3345 13.7566 50.7466 13.7566C45.3489 13.7566 42.7176 18.6144 42.7176 24.0795C42.7176 26.5084 43.3249 28.5325 44.3369 30.1518C43.6622 30.894 42.7176 31.7036 41.4357 31.7036C40.0863 31.7036 39.4116 30.4216 39.4116 28.465V5.99756C39.2767 6.06503 39.1418 6.1325 39.0068 6.19997C37.455 6.94214 36.0382 7.4819 34.4863 7.88672C34.5538 8.02165 34.6213 8.15659 34.6213 8.29154C35.296 10.0458 35.3634 12.1373 35.3634 14.3638V27.6554C35.3634 28.6674 35.4984 29.5445 35.7008 30.2867C35.1611 31.0289 34.4189 31.8385 33.4068 31.8385C32.1249 31.8385 31.1129 30.8265 31.1129 28.8024V21.0434C31.1129 17.6698 30.4382 13.6891 24.8382 13.6891C19.9129 13.6891 17.8887 16.7927 17.8887 19.8289L21.5996 21.2458C21.5996 21.2458 21.1273 15.0385 24.5008 15.0385C27.1996 15.0385 27.1321 18.0747 27.1321 20.706V21.6505C27.1321 22.2578 25.7153 23.0674 23.0164 24.0795C20.655 25.024 17.0791 26.2385 17.0791 29.6795C17.0791 32.1758 18.9008 33.9976 21.5996 33.9976C23.7586 33.9976 25.8502 32.7831 27.1996 30.894C27.2671 31.8385 28.7514 33.9976 31.0453 33.9976C33.4068 33.9976 35.026 32.5807 36.0382 31.2313C36.9153 33.1205 38.4671 33.9976 40.2887 33.9976C42.2453 33.9976 43.7971 32.3108 44.8092 30.8265C46.3611 32.7831 48.5875 33.9976 51.1514 33.9976C54.3225 33.9976 56.5489 31.906 57.8309 29.8819C58.6405 30.9614 61.2044 33.9976 65.2526 33.9976C68.626 33.9976 71.8646 31.7711 71.8646 27.8578C71.9321 24.9566 69.9755 23.5398 68.4237 22.6627ZM27.1996 29.9494C26.3225 30.6241 25.2429 31.2313 24.096 31.2313C22.1393 31.2313 21.1948 29.8145 21.1948 28.1276C21.1948 25.9012 22.3418 24.8891 25.8502 24.8891C27.0646 24.8891 27.1996 25.024 27.1996 25.7662V29.9494ZM46.9682 22.1229C46.9682 17.5349 48.0478 15.106 50.2068 15.106C51.9611 15.106 53.1755 16.8602 53.1755 20.8409C53.1755 22.3927 52.9731 22.5951 51.7586 22.5951H47.0357L46.9682 22.1229Z" fill="#02524B"/>
<path d="M78.8814 27.6578V6C77.1947 6.80964 75.6429 7.41687 73.9561 7.88916C74.7658 9.64338 74.8332 11.9373 74.8332 14.2988V27.5904C74.8332 29.682 74.6983 31.3012 73.8887 33.4602H80.2983C80.3658 33.4602 78.8814 31.5711 78.8814 27.6578Z" fill="#02524B"/>
<path d="M89.5415 13.6943C84.7512 13.6943 81.5127 17.7426 81.5127 23.9497C81.5127 29.7522 84.4814 34.0028 89.2046 34.0028C93.9944 34.0028 97.2336 30.022 97.2336 23.8823C97.2336 18.0799 94.2648 13.6943 89.5415 13.6943ZM89.6763 32.451C87.0452 32.451 85.8983 27.7281 85.8983 22.6678C85.8983 17.8775 86.9103 15.1112 89.0016 15.1112C91.701 15.1112 92.7799 20.0365 92.7799 25.0968C92.7799 30.022 91.701 32.451 89.6763 32.451Z" fill="#02524B"/>
<path d="M114.573 15.1095H120.105V14.03H114.573V8.63239C113.223 9.5095 111.807 10.1842 110.322 10.724C110.458 12.1408 110.458 13.0179 110.525 14.03H103.845C103.305 12.4107 102.968 11.0613 102.968 9.98179C102.968 8.63239 103.44 7.89022 104.52 7.89022C105.6 7.89022 106.679 9.23962 107.623 12.6131H108.096L109.243 6.54082C109.243 6.54082 108.298 5.93359 106.949 5.93359C102.023 5.93359 100.067 9.7119 99.9996 13.9625H97.7727V15.042H99.9996V15.2444V27.1191C99.9996 29.2107 99.9322 31.1673 99.0546 33.4613H104.925C104.047 31.2348 103.98 29.2107 103.98 27.1191V15.3119V15.1095H110.525V15.3119V28.6709C110.525 32.1793 111.942 34.0011 114.303 34.0011C117.069 34.0011 119.026 31.7071 119.026 29.548C118.081 30.2227 117.339 30.6951 116.529 30.6951C114.573 30.6951 114.573 28.536 114.573 27.6589V15.3119V15.1095Z" fill="#02524B"/>
<path d="M4.66475 13.0167C4.66475 11.2625 6.3515 9.84564 8.51053 9.84564C11.2768 9.84564 12.9636 11.1276 13.9081 17.8071H14.5154L15.3925 8.69866C9.11777 6.53962 1.42619 8.8336 1.29126 15.3782C1.29126 22.4625 12.5587 22.4625 12.5587 28.9396C12.5587 30.8287 10.872 32.1107 8.98282 32.1107C3.99006 32.1107 2.84306 27.9276 2.57319 23.542H1.96595L0.34668 31.7734C0.34668 31.7734 4.05752 33.9324 8.03825 33.9324C12.8286 33.8649 15.9997 30.3565 16.1347 26.6456C16.1347 19.5613 4.66475 18.077 4.66475 13.0167Z" fill="#02524B"/>
<path d="M121.118 31.438C121.118 30.0886 122.197 28.9417 123.614 28.9417C125.099 28.9417 126.179 30.0886 126.179 31.438C126.179 32.7874 125.099 33.9344 123.682 33.9344C122.13 34.0019 121.118 32.7874 121.118 31.438Z" fill="#B4D625"/>
</g>
</g>
<defs>
<clipPath id="clip0_835_6775">
<rect width="126" height="28" fill="white" transform="translate(0.34668 6)"/>
</clipPath>
</defs>
</svg>
