<svg width="64" height="64" viewBox="0 0 64 64" fill="none" xmlns="http://www.w3.org/2000/svg">
<path d="M53.1602 9.48112C48.2195 11.1028 39.603 12.9731 34.338 8.71353C33.1596 7.76216 31.4839 7.76216 30.3055 8.71353C25.1162 12.9299 16.7808 11.1136 11.9266 9.50274C9.91572 8.83246 7.81837 10.292 7.72107 12.4109C6.53184 38.8982 25.0729 52.3904 30.846 55.9365C31.8839 56.5743 33.1812 56.5743 34.2191 55.9365C39.9922 52.3904 58.5441 38.8874 57.3441 12.3893C57.2468 10.2811 55.1711 8.82164 53.1602 9.48112Z" fill="#7DD3FC"/>
<path fill-rule="evenodd" clip-rule="evenodd" d="M43.2236 21.0979C44.2952 21.8136 44.5837 23.2625 43.868 24.3341L33.8245 39.3724C33.4432 39.9433 32.83 40.3173 32.1479 40.3949C31.4658 40.4725 30.7842 40.2458 30.2844 39.7752L23.4194 33.3101C22.4812 32.4266 22.4369 30.9499 23.3204 30.0118C24.2039 29.0736 25.6806 29.0293 26.6188 29.9128L31.4757 34.4867L39.9873 21.7423C40.703 20.6707 42.1519 20.3821 43.2236 21.0979Z" fill="#3B82F6"/>
</svg>
