<svg width="64" height="64" viewBox="0 0 64 64" fill="none" xmlns="http://www.w3.org/2000/svg">
<path d="M63.673 10.2441C63.6303 10.1481 63.5663 10.0628 63.4916 9.98811C63.4916 9.97744 63.4916 9.96678 63.4703 9.95611H63.4596C63.2463 9.75344 62.9476 9.62544 62.585 9.66811L15.1076 15.6201C14.2436 15.7268 13.8703 16.7721 14.457 17.4014L25.5716 29.3054L49.1876 17.4974C49.465 17.3588 49.689 17.7534 49.433 17.9241L27.5876 32.9108L32.1103 48.5588C32.3556 49.3908 33.4436 49.6041 33.977 48.9214L63.417 11.1828C63.641 10.8948 63.6836 10.5748 63.609 10.2761L63.673 10.2441Z" fill="#4169E1"/>
<path d="M3.06498 47.8015C2.52098 47.8015 1.99831 47.5241 1.68898 47.0228C1.23031 46.2655 1.47564 45.2841 2.23298 44.8255L18.3076 35.1401C19.065 34.6815 20.0463 34.9268 20.505 35.6841C20.9636 36.4415 20.7183 37.4228 19.961 37.8815L3.88631 47.5775C3.63031 47.7375 3.34231 47.8121 3.06498 47.8121V47.8015Z" fill="#6DCEFF"/>
<path d="M1.9343 35.9615C1.3903 35.9615 0.867635 35.6841 0.558301 35.1828C0.0996348 34.4255 0.344968 33.4441 1.1023 32.9855L10.265 27.4601C11.0223 27.0015 12.0036 27.2468 12.4623 28.0041C12.921 28.7615 12.6756 29.7428 11.9183 30.2015L2.75563 35.7268C2.49963 35.8868 2.21163 35.9615 1.9343 35.9615Z" fill="#6DCEFF"/>
<path d="M13.017 54.3401C12.473 54.3401 11.9503 54.0628 11.641 53.5615C11.1823 52.8041 11.4276 51.8228 12.185 51.3641L21.3476 45.8388C22.105 45.3801 23.0863 45.6255 23.545 46.3828C24.0036 47.1401 23.7583 48.1215 23.001 48.5801L13.8383 54.1055C13.5823 54.2655 13.2943 54.3401 13.017 54.3401Z" fill="#6DCEFF"/>
</svg>
